<svg width="22" height="16" viewBox="0 0 22 16" fill="none" xmlns="http://www.w3.org/2000/svg">
<g clip-path="url(#clip0_2839_120)">
<path d="M5.27949 12.7255C3.43354 11.889 1.88728 10.5084 0.847839 8.76867H0.853492C2.58319 5.6993 6.3648 3.57391 10.7512 3.57391C11.8278 3.57228 12.9004 3.70328 13.945 3.96394" stroke="#939393" stroke-width="1.8" stroke-linecap="round" stroke-linejoin="round"/>
<path d="M16.6075 4.88557C18.508 5.72352 20.099 7.13467 21.1578 8.92155C19.4281 11.9853 15.6465 14.1163 11.2601 14.1163C10.0876 14.1183 8.92023 13.9623 7.78937 13.6528" stroke="#939393" stroke-width="1.8" stroke-linecap="round" stroke-linejoin="round"/>
<path d="M8.315 9.79218C7.64336 9.08102 7.27244 8.13788 7.27971 7.15972C7.28697 6.18156 7.67186 5.24404 8.354 4.54294C9.03613 3.84184 9.96275 3.43138 10.9403 3.39729C11.9179 3.36321 12.8709 3.70813 13.6002 4.36001L8.315 9.79218Z" fill="#939393"/>
<path d="M10.2708 10.7078C10.7257 10.8895 11.211 10.9835 11.7009 10.9848C12.1992 10.9855 12.6927 10.8879 13.1532 10.6976C13.6137 10.5072 14.0322 10.2279 14.3845 9.8755C14.7369 9.52315 15.0162 9.10472 15.2066 8.64421C15.3969 8.1837 15.4945 7.69015 15.4938 7.19185C15.4953 6.67877 15.3914 6.17085 15.1885 5.69955L10.2708 10.7078Z" fill="#939393"/>
<path d="M3.07507 14.9246L16.7318 1.07571" stroke="#939393" stroke-width="1.8" stroke-linecap="round" stroke-linejoin="round"/>
</g>
<defs>
<clipPath id="clip0_2839_120">
<rect width="22" height="15.5447" fill="white" transform="translate(0 0.227646)"/>
</clipPath>
</defs>
</svg>
