<svg width="25" height="16" viewBox="0 0 25 16" fill="none" xmlns="http://www.w3.org/2000/svg">
<g clip-path="url(#clip0_2839_110)">
<path d="M14.4576 7.3371C15.2753 7.3371 15.9382 6.67423 15.9382 5.85654C15.9382 5.03885 15.2753 4.37598 14.4576 4.37598C13.6399 4.37598 12.9771 5.03885 12.9771 5.85654C12.9771 6.67423 13.6399 7.3371 14.4576 7.3371Z" fill="white"/>
<path d="M15.1096 7.3271C15.9543 7.3271 16.639 6.62241 16.639 5.75315C16.639 4.88388 15.9543 4.1792 15.1096 4.1792C14.2649 4.1792 13.5802 4.88388 13.5802 5.75315C13.5802 6.62241 14.2649 7.3271 15.1096 7.3271Z" fill="white"/>
<path d="M24.7346 8.09548C23.6047 6.22974 22.0346 4.70486 20.1777 3.66995C18.3208 2.63505 16.2408 2.12556 14.141 2.1913C12.0351 2.12059 9.94812 2.62924 8.08569 3.66709C6.22326 4.70495 4.64969 6.23619 3.52009 8.10988L3.27405 8.57069L3.52009 9.0315C4.64896 10.8982 6.2189 12.4239 8.07601 13.4589C9.93312 14.494 12.0137 15.0028 14.1137 14.9357C16.2172 15.0039 18.3014 14.494 20.1613 13.4563C22.0211 12.4185 23.5925 10.8886 24.7209 9.0171L24.9669 8.55629L24.7346 8.09548ZM14.1273 13.0636C12.4265 13.1201 10.7381 12.7408 9.20716 11.9582C7.67621 11.1756 6.3485 10.0131 5.33809 8.57069C6.83933 6.3494 9.10593 4.83502 11.6532 4.35136C11.2386 4.77894 10.9296 5.30697 10.7532 5.88934C10.5769 6.47171 10.5386 7.09071 10.6417 7.69226L14.387 6.81384L11.9676 10.1259C12.6852 10.7993 13.6209 11.1564 14.5814 11.1233C15.5418 11.0902 16.4535 10.6694 17.1277 9.94802C17.8019 9.22664 18.1871 8.25983 18.2037 7.2476C18.2202 6.23537 17.8668 5.25517 17.2165 4.50977C19.5245 5.08263 21.5555 6.52103 22.9302 8.55629C21.9213 10.0014 20.5943 11.1666 19.0632 11.9518C17.5322 12.7369 15.843 13.1185 14.141 13.0636" fill="#939393"/>
</g>
<defs>
<clipPath id="clip0_2839_110">
<rect width="25" height="15" fill="white" transform="translate(0 0.5)"/>
</clipPath>
</defs>
</svg>
