<svg width="98" height="19" viewBox="0 0 98 19" fill="none" xmlns="http://www.w3.org/2000/svg">
<path d="M6.994 19C6.82067 19 6.682 18.948 6.578 18.844C6.474 18.74 6.422 18.6013 6.422 18.428V2.36H1.274C1.10067 2.36 0.962 2.308 0.858 2.204C0.754 2.1 0.702 1.96133 0.702 1.788V1.398C0.702 1.20733 0.754 1.06 0.858 0.956C0.962 0.851999 1.10067 0.799999 1.274 0.799999H13.182C13.3727 0.799999 13.52 0.851999 13.624 0.956C13.728 1.06 13.78 1.20733 13.78 1.398V1.788C13.78 1.96133 13.728 2.1 13.624 2.204C13.52 2.308 13.3727 2.36 13.182 2.36H8.06V18.428C8.06 18.6013 8.008 18.74 7.904 18.844C7.8 18.948 7.65267 19 7.462 19H6.994ZM17.4887 19C17.3153 19 17.1767 18.948 17.0727 18.844C16.9687 18.74 16.9167 18.6013 16.9167 18.428V1.398C16.9167 1.20733 16.9687 1.06 17.0727 0.956C17.1767 0.851999 17.3153 0.799999 17.4887 0.799999H27.6287C27.8193 0.799999 27.9667 0.851999 28.0707 0.956C28.1747 1.06 28.2267 1.20733 28.2267 1.398V1.788C28.2267 1.96133 28.1747 2.1 28.0707 2.204C27.9667 2.308 27.8193 2.36 27.6287 2.36H18.5547V8.99H27.0567C27.2473 8.99 27.3947 9.042 27.4987 9.146C27.6027 9.25 27.6547 9.39733 27.6547 9.588V9.978C27.6547 10.1513 27.6027 10.29 27.4987 10.394C27.3947 10.498 27.2473 10.55 27.0567 10.55H18.5547V17.44H27.8367C28.0273 17.44 28.1747 17.492 28.2787 17.596C28.3827 17.7 28.4347 17.8473 28.4347 18.038V18.428C28.4347 18.6013 28.3827 18.74 28.2787 18.844C28.1747 18.948 28.0273 19 27.8367 19H17.4887ZM32.8754 19C32.702 19 32.5634 18.948 32.4594 18.844C32.3554 18.74 32.3034 18.6013 32.3034 18.428V1.398C32.3034 1.20733 32.3554 1.06 32.4594 0.956C32.5634 0.851999 32.702 0.799999 32.8754 0.799999H33.3434C33.534 0.799999 33.6814 0.851999 33.7854 0.956C33.8894 1.06 33.9414 1.20733 33.9414 1.398V8.158L41.8194 1.19C41.8887 1.138 42.0014 1.06 42.1574 0.956C42.3134 0.851999 42.53 0.799999 42.8074 0.799999H43.2234C43.362 0.799999 43.4834 0.851999 43.5874 0.956C43.6914 1.06 43.7434 1.18133 43.7434 1.32C43.7434 1.45867 43.7 1.57133 43.6134 1.658L34.7994 9.51L44.1594 18.116C44.2634 18.22 44.3154 18.3413 44.3154 18.48C44.3154 18.6187 44.2634 18.74 44.1594 18.844C44.0554 18.948 43.934 19 43.7954 19H43.3534C43.076 19 42.8594 18.948 42.7034 18.844C42.5474 18.74 42.4347 18.662 42.3654 18.61L33.9414 10.914V18.428C33.9414 18.6013 33.8894 18.74 33.7854 18.844C33.6814 18.948 33.534 19 33.3434 19H32.8754ZM47.3885 19C47.1978 19 47.0418 18.9393 46.9205 18.818C46.7991 18.6967 46.7385 18.5407 46.7385 18.35V1.45C46.7385 1.25933 46.7991 1.10333 46.9205 0.982C47.0418 0.860666 47.1978 0.799999 47.3885 0.799999H55.1105C56.5491 0.799999 57.7278 1.008 58.6465 1.424C59.5651 1.84 60.2411 2.42933 60.6745 3.192C61.1251 3.95467 61.3505 4.84733 61.3505 5.87C61.3505 6.51133 61.2291 7.07467 60.9865 7.56C60.7611 8.04533 60.4751 8.444 60.1285 8.756C59.7991 9.068 59.4785 9.302 59.1665 9.458C59.8425 9.77 60.4318 10.29 60.9345 11.018C61.4545 11.7287 61.7145 12.578 61.7145 13.566C61.7145 14.658 61.4718 15.6113 60.9865 16.426C60.5011 17.2407 59.7818 17.8733 58.8285 18.324C57.8751 18.7747 56.7138 19 55.3445 19H47.3885ZM50.8725 15.958H54.8505C55.6998 15.958 56.3411 15.724 56.7745 15.256C57.2078 14.7707 57.4245 14.1987 57.4245 13.54C57.4245 12.864 57.1991 12.3007 56.7485 11.85C56.3151 11.382 55.6825 11.148 54.8505 11.148H50.8725V15.958ZM50.8725 8.158H54.6165C55.4311 8.158 56.0378 7.95867 56.4365 7.56C56.8525 7.144 57.0605 6.61533 57.0605 5.974C57.0605 5.33267 56.8525 4.82133 56.4365 4.44C56.0378 4.04133 55.4311 3.842 54.6165 3.842H50.8725V8.158ZM65.4666 19C65.2759 19 65.1199 18.9393 64.9986 18.818C64.8772 18.6967 64.8166 18.5407 64.8166 18.35V1.45C64.8166 1.25933 64.8772 1.10333 64.9986 0.982C65.1199 0.860666 65.2759 0.799999 65.4666 0.799999H67.8326C68.0926 0.799999 68.2832 0.860666 68.4046 0.982C68.5259 1.10333 68.6039 1.19867 68.6386 1.268L75.5806 12.11V1.45C75.5806 1.25933 75.6412 1.10333 75.7626 0.982C75.8839 0.860666 76.0312 0.799999 76.2046 0.799999H78.8566C79.0472 0.799999 79.2032 0.860666 79.3246 0.982C79.4459 1.10333 79.5066 1.25933 79.5066 1.45V18.35C79.5066 18.5233 79.4459 18.6793 79.3246 18.818C79.2032 18.9393 79.0472 19 78.8566 19H76.4646C76.2046 19 76.0139 18.9393 75.8926 18.818C75.7886 18.6793 75.7106 18.584 75.6586 18.532L68.7426 8.028V18.35C68.7426 18.5407 68.6819 18.6967 68.5606 18.818C68.4392 18.9393 68.2832 19 68.0926 19H65.4666ZM84.0017 19C83.8111 19 83.6551 18.9393 83.5337 18.818C83.4124 18.6967 83.3517 18.5407 83.3517 18.35V1.45C83.3517 1.25933 83.4124 1.10333 83.5337 0.982C83.6551 0.860666 83.8111 0.799999 84.0017 0.799999H86.7577C86.9484 0.799999 87.1044 0.860666 87.2257 0.982C87.3471 1.10333 87.4077 1.25933 87.4077 1.45V7.378L92.7637 1.294C92.8331 1.19 92.9457 1.086 93.1017 0.982C93.2751 0.860666 93.5004 0.799999 93.7777 0.799999H96.9237C97.0797 0.799999 97.2097 0.860666 97.3137 0.982C97.4177 1.086 97.4697 1.20733 97.4697 1.346C97.4697 1.46733 97.4351 1.57133 97.3657 1.658L90.6837 9.51L97.8597 18.142C97.9291 18.2113 97.9637 18.3153 97.9637 18.454C97.9637 18.5927 97.9117 18.7227 97.8077 18.844C97.7037 18.948 97.5737 19 97.4177 19H94.1677C93.8557 19 93.6217 18.9307 93.4657 18.792C93.3097 18.6533 93.2057 18.558 93.1537 18.506L87.4077 11.85V18.35C87.4077 18.5407 87.3471 18.6967 87.2257 18.818C87.1044 18.9393 86.9484 19 86.7577 19H84.0017Z" fill="#3B3B3B"/>
</svg>
