<svg width="24" height="25" viewBox="0 0 24 25" fill="none" xmlns="http://www.w3.org/2000/svg">
<path fill-rule="evenodd" clip-rule="evenodd" d="M23 21.6938L12 2.69385L1 21.6938H23ZM13 17.6938C13 18.2461 12.5523 18.6938 12 18.6938C11.4477 18.6938 11 18.2461 11 17.6938C11 17.1416 11.4477 16.6938 12 16.6938C12.5523 16.6938 13 17.1416 13 17.6938ZM12 14.6938C12.5523 14.6938 13 14.2461 13 13.6938V10.6938C13 10.1416 12.5523 9.69385 12 9.69385C11.4477 9.69385 11 10.1416 11 10.6938V13.6938C11 14.2461 11.4477 14.6938 12 14.6938Z" fill="#EC4E2C"/>
</svg>
